<svg xmlns="http://www.w3.org/2000/svg" xmlns:x="http://www.w3.org/1999/xlink" width="22.61946710584651in" height="11.309733552923255in" viewBox="0 0 2048 1024">
<defs>
<g>
<polyline id="strip" points="128.0,0.0 126.87989212453586,2.852367688022284 125.75987002549391,5.704735376044568 124.64001947272772,8.557103064066853 123.520426222954,11.409470752089137 122.4011760131856,14.26183844011142 121.28235455416578,17.114206128133706 120.16404752380458,19.96657381615599 119.04634056061784,22.818941504178273 117.92931925716894,25.671309192200557 116.81306915351438,28.52367688022284 115.69767573065312,31.376044568245124 114.58322440398064,34.22841225626741 113.46980051674791,37.080779944289695 112.35748933352586,39.93314763231198 111.24637603367603,42.78551532033426 110.13654570482757,45.637883008356546 109.02808333636135,48.49025069637883 107.9210738129016,51.34261838440111 106.81560190781555,54.1949860724234 105.71175227672157,57.04735376044568 104.60960945100639,59.899721448467965 103.50925783135179,62.75208913649025 102.41078168127125,65.60445682451254 101.31426512065724,68.45682451253482 100.21979211933936,71.3091922005571 99.12744649065408,74.16155988857939 98.03731188502638,77.01392757660167 96.949471783564,79.86629526462396 95.8640094916644,82.71866295264624 94.78100813263552,85.57103064066852 93.70055064133018,88.42339832869081 92.62271975779512,91.27576601671309 91.54759802093477,94.12813370473538 90.47526776219061,96.98050139275766 89.40581109923636,99.83286908077994 88.33930992968942,102.68523676880223 87.27584592483929,105.53760445682451 86.21550052339333,108.3899721448468 85.15835492524025,111.24233983286908 84.1044900852319,114.09470752089136 83.05398670698395,116.94707520891365 82.00692523669561,119.79944289693593 80.96338585698919,122.65181058495821 79.92344848076985,125.5041782729805 78.88719274510593,128.35654596100278 77.85469800513047,131.20891364902508 76.82604332796434,134.06128133704735 75.80130748666124,136.91364902506965 74.78056895417554,139.76601671309191 73.76390589735277,142.6183844011142 72.75139617094382,145.47075208913648 71.74311731164285,148.32311977715878 70.73914653214965,151.17548746518105 69.7395607152568,154.02785515320335 68.74443640796207,156.88022284122562 67.75384981560656,159.73259052924791 66.76787679603899,162.58495821727018 65.78659285380661,165.43732590529248 64.81007313437311,168.28969359331475 63.83839241836421,171.14206128133705 62.87162511584086,173.99442896935932 61.90984526060116,176.84679665738162 60.953126504510934,179.6991643454039 60.001542111863486,182.55153203342618 59.05516495376918,185.40389972144848 58.11406750257508,188.25626740947075 57.17832182631501,191.10863509749305 56.24799958319083,193.96100278551532 55.32317201608478,196.81337047353762 54.4039099471039,199.6657381615599 53.490283772156545,202.51810584958218 52.582363455561534,205.37047353760445 51.680218524690375,208.22284122562675 50.78391806464296,211.07520891364902 49.89353071295713,213.92757660167132 49.00912465435249,216.7799442896936 48.130767615508816,219.6323119777159 47.25852685987988,222.48467966573816 46.392469182542186,225.33704735376045 45.532660905080135,228.18941504178272 44.6791678705071,231.04178272980502 43.83205543822325,233.8941504178273 42.99138847901044,236.7465181058496 42.15723137006445,239.59888579387186 41.32964799006514,242.45125348189416 40.508701714284626,245.30362116991643 39.694455409734076,248.15598885793872 38.88697143034953,251.008356545961 38.08631161221679,253.8607242339833 37.29253726883621,256.71309192200556 36.50570918642731,259.56545961002786 35.72588761927386,262.41782729805016 34.95313228510973,265.2701949860724 34.187502360545665,268.1225626740947 33.42905647653778,270.974930362117 32.677852713897565,273.8272980501393 31.933948598844125,276.6796657381616 31.197401098599016,279.53203342618383 30.46826661702356,282.3844011142061 29.746600990299726,285.2367688022284 29.032459482654147,288.0891364902507 28.325896782126094,290.94150417827296 27.626966996379494,293.79387186629526 26.935723648559488,296.64623955431756 26.252219673193665,299.49860724233986 25.576507412138426,302.3509749303621 24.908638610570677,305.2033426183844 24.24866441302531,308.0557103064067 23.59663535947854,310.908077994429 22.95260138147769,313.76044568245123 22.316611798317453,316.61281337047353 21.688715313263103,319.46518105849583 21.06896000982087,322.3175487465181 20.457393348055746,325.16991643454037 19.854062160957056,328.02228412256267 19.259012650852043,330.87465181058496 18.672290385867782,333.72701949860726 18.093940296441644,336.5793871866295 17.524006671880514,339.4317548746518 16.962533156969172,342.2841225626741 16.409562748628147,345.1364902506964 15.86513779262097,347.98885793871864 15.329299980311347,350.84122562674094 14.802090345470617,353.69359331476323 14.283549261135391,356.54596100278553 13.773716436515741,359.3983286908078 13.272630913954444,362.25069637883007 12.780331065937133,365.10306406685237 12.296854592153721,367.95543175487467 11.822238516611506,370.80779944289696 11.356519184799865,373.6601671309192 10.899732260906944,376.5125348189415 10.451912725088576,379.3649025069638 10.013094870789544,382.2172701949861 9.583312302117434,385.06963788300834 9.162597931269218,387.92200557103064 8.750983976010971,390.77437325905294 8.34850195721063,393.62674094707523 7.95518269642416,396.4791086350975 7.571056313535266,399.3314763231198 7.196152224448909,402.18384401114207 6.830499138838633,405.03621169916437 6.474125057948001,407.8885793871866 6.127057272446308,410.7409470752089 5.789322360338758,413.5933147632312 5.460946184931018,416.4456824512535 5.14195389284879,419.29805013927574 4.832369912112014,422.15041782729804 4.532217950264226,425.00278551532034 4.241520992557099,427.85515320334264 3.96030130019021,430.7075208913649 3.688580408606356,433.5598885793872 3.4263791258423453,436.4122562674095 3.1737175309355763,439.2646239554318 2.9306149723864365,442.116991643454 2.6970900666765374,444.9693593314763 2.4731606968431947,447.8217270194986 2.258844011109872,450.6740947075209 2.0541564215730546,453.52646239554315 1.8591136029453992,456.37883008356545 1.673730491355414,459.23119777158774 1.498021283203613,462.08356545961004 1.3319994340754562,464.93593314763234 1.175677657710878,467.7883008356546 1.0290679250307022,470.6406685236769 0.8921814632198988,473.4930362116992 0.7650287548678705,476.3454038997215 0.6476195371657099,479.1977715877437 0.539962801160442,482.050139275766 0.4420667910666509,484.9025069637883 0.35393900363500563,487.7548746518106 0.2755861875782557,490.60724233983285 0.2070143430544107,493.45961002785515 0.1482287212072464,496.31197771587745 0.0992338237641377,499.16434540389974 0.06003340269143109,502.016713091922 0.03063045990697333,504.8690807799443 0.011027247050378719,507.7214484679666 0.0012252653104951605,510.5738161559889 0.0012252653104951605,513.4261838440111 0.011027247050378719,516.2785515320335 0.03063045990697333,519.1309192200557 0.06003340269143109,521.983286908078 0.0992338237641377,524.8356545961003 0.1482287212072464,527.6880222841226 0.2070143430544107,530.5403899721448 0.2755861875782557,533.3927576601671 0.3539390036349914,536.2451253481894 0.4420667910666509,539.0974930362117 0.539962801160442,541.949860724234 0.6476195371657099,544.8022284122562 0.7650287548678705,547.6545961002786 0.8921814632198988,550.5069637883008 1.0290679250307022,553.3593314763232 1.175677657710878,556.2116991643454 1.3319994340754562,559.0640668523677 1.498021283203613,561.91643454039 1.6737304913553999,564.7688022284123 1.8591136029453992,567.6211699164345 2.0541564215730546,570.4735376044569 2.258844011109872,573.3259052924791 2.4731606968431947,576.1782729805014 2.6970900666765374,579.0306406685237 2.9306149723864223,581.8830083565459 3.1737175309355763,584.7353760445683 3.426379125842331,587.5877437325905 3.6885804086063416,590.4401114206128 3.96030130019021,593.2924791086351 4.241520992557085,596.1448467966574 4.532217950264226,598.9972144846797 4.832369912112,601.849582172702 5.141953892848775,604.7019498607242 5.460946184931018,607.5543175487466 5.789322360338744,610.4066852367688 6.127057272446308,613.259052924791 6.474125057948001,616.1114206128134 6.830499138838633,618.9637883008356 7.196152224448909,621.816155988858 7.571056313535266,624.6685236768802 7.955182696424146,627.5208913649025 8.34850195721063,630.3732590529248 8.750983976010971,633.2256267409471 9.162597931269204,636.0779944289693 9.583312302117434,638.9303621169917 10.013094870789544,641.7827298050139 10.45191272508859,644.6350974930363 10.899732260906944,647.4874651810585 11.356519184799865,650.3398328690807 11.82223851661152,653.1922005571031 12.296854592153693,656.0445682451253 12.78033106593712,658.8969359331477 13.272630913954444,661.7493036211699 13.773716436515727,664.6016713091922 14.283549261135391,667.4540389972145 14.802090345470631,670.3064066852368 15.329299980311333,673.158774373259 15.865137792620942,676.0111420612814 16.409562748628133,678.8635097493036 16.962533156969172,681.715877437326 17.5240066718805,684.5682451253482 18.093940296441644,687.4206128133704 18.67229038586781,690.2729805013928 19.259012650852014,693.125348189415 19.854062160957014,695.9777158774373 20.457393348055746,698.8300835654596 21.06896000982087,701.6824512534819 21.688715313263117,704.5348189415042 22.316611798317453,707.3871866295265 22.952601381477677,710.2395543175487 23.596635359478526,713.0919220055711 24.24866441302528,715.9442896935933 24.908638610570648,718.7966573816155 25.576507412138426,721.6490250696379 26.25221967319365,724.5013927576601 26.935723648559502,727.3537604456825 27.626966996379466,730.2061281337047 28.325896782126065,733.058495821727 29.032459482654147,735.9108635097493 29.74660099029971,738.7632311977716 30.46826661702356,741.6155988857939 31.197401098599002,744.4679665738162 31.93394859884414,747.3203342618384 32.67785271389755,750.1727019498608 33.42905647653775,753.025069637883 34.187502360545636,755.8774373259052 34.95313228510972,758.7298050139276 35.72588761927386,761.5821727019498 36.50570918642734,764.4345403899722 37.29253726883623,767.2869080779944 38.08631161221675,770.1392757660167 38.88697143034952,772.991643454039 39.69445540973406,775.8440111420613 40.5087017142846,778.6963788300835 41.329647990065155,781.5487465181059 42.15723137006445,784.4011142061281 42.991388479010425,787.2534818941505 43.83205543822322,790.1058495821727 44.67916787050707,792.958217270195 45.532660905080135,795.8105849582173 46.39246918254217,798.6629526462395 47.25852685987985,801.5153203342618 48.130767615508844,804.3676880222841 49.00912465435243,807.2200557103064 49.89353071295713,810.0724233983287 50.78391806464295,812.924791086351 51.680218524690346,815.7771587743732 52.58236345556155,818.6295264623956 53.490283772156545,821.4818941504178 54.4039099471039,824.3342618384402 55.323172016084754,827.1866295264624 56.24799958319079,830.0389972144847 57.17832182631503,832.891364902507 58.11406750257507,835.7437325905292 59.055164953769165,838.5961002785515 60.0015421118635,841.4484679665738 60.953126504510934,844.3008356545961 61.90984526060116,847.1532033426184 62.87162511584083,850.0055710306407 63.83839241836418,852.8579387186629 64.81007313437314,855.7103064066853 65.78659285380661,858.5626740947075 66.76787679603898,861.4150417827298 67.75384981560654,864.2674094707521 68.74443640796204,867.1197771587744 69.7395607152568,869.9721448467967 70.73914653214965,872.824512534819 71.74311731164283,875.6768802228412 72.75139617094385,878.5292479108635 73.76390589735277,881.3816155988858 74.78056895417548,884.233983286908 75.80130748666123,887.0863509749304 76.82604332796431,889.9387186629526 77.8546980051305,892.791086350975 78.88719274510593,895.6434540389972 79.92344848076984,898.4958217270195 80.96338585698916,901.3481894150418 82.00692523669558,904.200557103064 83.0539867069839,907.0529247910863 84.1044900852319,909.9052924791087 85.15835492524022,912.7576601671309 86.21550052339335,915.6100278551532 87.2758459248393,918.4623955431755 88.33930992968936,921.3147632311977 89.40581109923636,924.1671309192201 90.47526776219058,927.0194986072423 91.54759802093477,929.8718662952647 92.62271975779512,932.7242339832869 93.70055064133018,935.5766016713092 94.78100813263549,938.4289693593315 95.86400949166436,941.2813370473538 96.94947178356395,944.133704735376 98.03731188502638,946.9860724233984 99.12744649065405,949.8384401114206 100.21979211933939,952.690807799443 101.31426512065725,955.5431754874652 102.41078168127126,958.3955431754874 103.50925783135177,961.2479108635098 104.60960945100636,964.100278551532 105.71175227672153,966.9526462395543 106.81560190781555,969.8050139275766 107.9210738129016,972.6573816155989 109.02808333636133,975.5097493036212 110.13654570482754,978.3621169916435 111.24637603367599,981.2144846796657 112.35748933352586,984.066852367688 113.46980051674788,986.9192200557103 114.58322440398061,989.7715877437325 115.69767573065313,992.6239554317549 116.81306915351438,995.4763231197771 117.92931925716894,998.3286908077995 119.04634056061782,1001.1810584958217 120.16404752380456,1004.033426183844 121.28235455416578,1006.8857938718663 122.40117601318559,1009.7381615598886 123.52042622295397,1012.5905292479109 124.64001947272767,1015.4428969359332 125.75987002549387,1018.2952646239554 126.87989212453586,1021.1476323119778 127.99999999999999,1024.0 128.00000000000003,1024.0 129.12010787546413,1021.1476323119778 130.24012997450612,1018.2952646239554 131.3599805272723,1015.4428969359332 132.47957377704603,1012.5905292479108 133.5988239868144,1009.7381615598886 134.71764544583422,1006.8857938718663 135.83595247619544,1004.033426183844 136.9536594393822,1001.1810584958217 138.07068074283106,998.3286908077995 139.1869308464856,995.4763231197771 140.30232426934685,992.6239554317549 141.4167755960194,989.7715877437325 142.53019948325212,986.9192200557103 143.64251066647415,984.066852367688 144.75362396632403,981.2144846796657 145.86345429517246,978.3621169916435 146.97191666363867,975.5097493036212 148.0789261870984,972.6573816155989 149.18439809218444,969.8050139275766 150.28824772327846,966.9526462395543 151.39039054899362,964.100278551532 152.49074216864824,961.2479108635098 153.58921831872874,958.3955431754874 154.68573487934276,955.5431754874652 155.78020788066067,952.6908077994428 156.87255350934595,949.8384401114206 157.96268811497362,946.9860724233984 159.05052821643605,944.133704735376 160.13599050833562,941.2813370473538 161.2189918673645,938.4289693593315 162.29944935866982,935.5766016713092 163.37728024220488,932.7242339832869 164.45240197906523,929.8718662952647 165.52473223780942,927.0194986072423 166.59418890076364,924.1671309192201 167.66069007031064,921.3147632311977 168.7241540751607,918.4623955431755 169.78449947660664,915.6100278551532 170.84164507475978,912.7576601671309 171.8955099147681,909.9052924791087 172.9460132930161,907.0529247910863 173.99307476330443,904.200557103064 175.03661414301084,901.3481894150418 176.07655151923018,898.4958217270195 177.11280725489405,895.6434540389972 178.14530199486956,892.7910863509749 179.17395667203567,889.9387186629526 180.19869251333876,887.0863509749304 181.21943104582448,884.2339832869081 182.23609410264723,881.3816155988858 183.24860382905615,878.5292479108635 184.25688268835717,875.6768802228412 185.26085346785035,872.824512534819 186.2604392847432,869.9721448467967 187.25556359203796,867.1197771587744 188.24615018439346,864.2674094707521 189.232123203961,861.4150417827298 190.2134071461934,858.5626740947075 191.18992686562686,855.7103064066853 192.16160758163582,852.8579387186629 193.12837488415917,850.0055710306407 194.09015473939888,847.1532033426183 195.04687349548908,844.3008356545961 195.9984578881365,841.4484679665738 196.94483504623082,838.5961002785515 197.88593249742493,835.7437325905292 198.82167817368503,832.8913649025069 199.7520004168092,830.0389972144847 200.67682798391525,827.1866295264624 201.5960900528961,824.3342618384402 202.50971622784346,821.4818941504178 203.41763654443844,818.6295264623956 204.31978147530964,815.7771587743732 205.21608193535707,812.924791086351 206.10646928704287,810.0724233983287 206.99087534564757,807.2200557103064 207.86923238449117,804.3676880222841 208.74147314012015,801.5153203342618 209.6075308174578,798.6629526462395 210.46733909491985,795.8105849582173 211.32083212949294,792.958217270195 212.16794456177678,790.1058495821727 213.00861152098958,787.2534818941504 213.84276862993556,784.4011142061281 214.67035200993485,781.5487465181059 215.49129828571535,778.6963788300836 216.30554459026592,775.8440111420613 217.11302856965048,772.991643454039 217.91368838778325,770.1392757660167 218.7074627311638,767.2869080779944 219.49429081357266,764.4345403899722 220.27411238072614,761.5821727019498 221.04686771489028,758.7298050139276 221.81249763945436,755.8774373259052 222.57094352346223,753.025069637883 223.32214728610245,750.1727019498608 224.06605140115585,747.3203342618384 224.80259890140098,744.4679665738162 225.53173338297648,741.6155988857938 226.25339900970027,738.7632311977716 226.96754051734587,735.9108635097493 227.6741032178739,733.0584958217271 228.37303300362055,730.2061281337047 229.06427635144053,727.3537604456824 229.74778032680635,724.5013927576601 230.42349258786157,721.6490250696379 231.09136138942932,718.7966573816157 231.75133558697473,715.9442896935933 232.4033646405215,713.091922005571 233.04739861852232,710.2395543175487 233.68338820168253,707.3871866295265 234.31128468673688,704.5348189415042 234.93103999017913,701.6824512534819 235.54260665194425,698.8300835654596 236.14593783904297,695.9777158774373 236.74098734914799,693.125348189415 237.32770961413217,690.2729805013928 237.90605970355833,687.4206128133706 238.4759933281195,684.5682451253482 239.03746684303087,681.7158774373258 239.59043725137187,678.8635097493036 240.13486220737906,676.0111420612814 240.67070001968867,673.1587743732591 241.19790965452938,670.3064066852368 241.71645073886464,667.4540389972144 242.2262835634843,664.6016713091922 242.72736908604554,661.7493036211699 243.2196689340629,658.8969359331477 243.7031454078463,656.0445682451253 244.1777614833885,653.192200557103 244.64348081520012,650.3398328690807 245.10026773909306,647.4874651810585 245.5480872749114,644.6350974930363 245.98690512921047,641.7827298050139 246.41668769788257,638.9303621169917 246.8374020687308,636.0779944289693 247.24901602398904,633.2256267409471 247.65149804278937,630.3732590529248 248.04481730357583,627.5208913649026 248.42894368646472,624.6685236768802 248.8038477755511,621.8161559888579 249.16950086116137,618.9637883008356 249.52587494205198,616.1114206128134 249.87294272755366,613.2590529247911 250.21067763966124,610.4066852367688 250.539053815069,607.5543175487464 250.8580461071512,604.7019498607242 251.167630087888,601.849582172702 251.46778204973577,598.9972144846797 251.75847900744293,596.1448467966574 252.03969869980978,593.2924791086351 252.31141959139364,590.4401114206128 252.57362087415765,587.5877437325905 252.82628246906444,584.7353760445683 253.06938502761358,581.883008356546 253.30290993332346,579.0306406685237 253.5268393031568,576.1782729805013 253.7411559888901,573.3259052924791 253.94584357842695,570.4735376044569 254.1408863970546,567.6211699164346 254.3262695086446,564.7688022284123 254.50197871679637,561.9164345403899 254.66800056592456,559.0640668523677 254.82432234228912,556.2116991643454 254.9709320749693,553.3593314763232 255.1078185367801,550.5069637883008 255.23497124513213,547.6545961002785 255.35238046283428,544.8022284122562 255.46003719883956,541.949860724234 255.55793320893335,539.0974930362117 255.646060996365,536.2451253481894 255.72441381242174,533.3927576601671 255.79298565694558,530.5403899721448 255.85177127879274,527.6880222841226 255.90076617623586,524.8356545961003 255.93996659730857,521.9832869080781 255.96936954009303,519.1309192200557 255.98897275294962,516.2785515320334 255.9987747346895,513.4261838440111 255.9987747346895,510.5738161559889 255.98897275294962,507.7214484679665 255.96936954009303,504.8690807799443 255.93996659730857,502.01671309192204 255.90076617623583,499.1643454038997 255.85177127879274,496.31197771587745 255.79298565694558,493.4596100278552 255.72441381242174,490.60724233983285 255.646060996365,487.7548746518106 255.55793320893335,484.90250696378826 255.46003719883956,482.050139275766 255.35238046283428,479.1977715877438 255.2349712451321,476.3454038997214 255.1078185367801,473.4930362116992 254.9709320749693,470.6406685236768 254.82432234228912,467.7883008356546 254.66800056592456,464.93593314763234 254.50197871679637,462.08356545961 254.3262695086446,459.23119777158774 254.1408863970546,456.3788300835655 253.94584357842695,453.52646239554315 253.7411559888901,450.6740947075209 253.5268393031568,447.82172701949855 253.30290993332346,444.9693593314763 253.06938502761358,442.11699164345407 252.82628246906444,439.2646239554317 252.57362087415765,436.4122562674095 252.31141959139364,433.55988857938723 252.03969869980978,430.7075208913649 251.7584790074429,427.85515320334264 251.46778204973577,425.0027855153203 251.16763008788797,422.15041782729804 250.8580461071512,419.2980501392758 250.53905381506897,416.44568245125345 250.21067763966124,413.5933147632312 249.8729427275537,410.74094707520896 249.52587494205198,407.8885793871866 249.16950086116137,405.03621169916437 248.80384777555108,402.183844011142 248.42894368646472,399.3314763231198 248.04481730357585,396.47910863509753 247.65149804278937,393.6267409470752 247.24901602398904,390.77437325905294 246.8374020687308,387.9220055710307 246.41668769788257,385.06963788300834 245.98690512921047,382.2172701949861 245.5480872749114,379.36490250696374 245.10026773909306,376.5125348189415 244.64348081520012,373.66016713091926 244.17776148338848,370.8077994428969 243.70314540784628,367.95543175487467 243.21966893406287,365.1030640668523 242.72736908604554,362.25069637883007 242.2262835634843,359.39832869080783 241.7164507388646,356.5459610027855 241.19790965452938,353.69359331476323 240.67070001968867,350.841225626741 240.13486220737903,347.98885793871864 239.59043725137184,345.1364902506964 239.0374668430308,342.28412256267404 238.4759933281195,339.4317548746518 237.90605970355836,336.57938718662956 237.3277096141322,333.7270194986072 236.74098734914796,330.87465181058496 236.14593783904297,328.0222841225627 235.54260665194425,325.16991643454037 234.93103999017913,322.3175487465181 234.31128468673688,319.4651810584958 233.68338820168253,316.61281337047353 233.04739861852232,313.7604456824513 232.40336464052146,310.90807799442894 231.75133558697468,308.0557103064067 231.09136138942932,305.20334261838445 230.42349258786157,302.3509749303621 229.74778032680632,299.49860724233986 229.0642763514405,296.6462395543175 228.3730330036205,293.79387186629526 227.6741032178739,290.941504178273 226.96754051734584,288.08913649025067 226.25339900970027,285.2367688022284 225.53173338297643,282.38440111420607 224.80259890140098,279.53203342618383 224.06605140115587,276.6796657381616 223.32214728610245,273.82729805013923 222.57094352346223,270.974930362117 221.81249763945436,268.12256267409475 221.04686771489025,265.2701949860724 220.27411238072614,262.41782729805016 219.49429081357266,259.5654596100278 218.7074627311638,256.71309192200556 217.91368838778322,253.86072423398332 217.11302856965045,251.00835654596096 216.30554459026592,248.15598885793872 215.4912982857154,245.30362116991648 214.67035200993485,242.45125348189413 213.84276862993556,239.5988857938719 213.00861152098955,236.74651810584953 212.16794456177675,233.8941504178273 211.3208321294929,231.04178272980505 210.46733909491985,228.1894150417827 209.6075308174578,225.33704735376045 208.74147314012015,222.4846796657382 207.86923238449117,219.63231197771586 206.9908753456475,216.77994428969362 206.10646928704284,213.92757660167126 205.21608193535704,211.07520891364902 204.31978147530964,208.22284122562678 203.41763654443844,205.37047353760443 202.50971622784346,202.51810584958218 201.59609005289607,199.66573816155983 200.67682798391522,196.8133704735376 199.75200041680918,193.96100278551535 198.82167817368497,191.108635097493 197.8859324974249,188.25626740947075 196.94483504623082,185.4038997214485 195.9984578881365,182.55153203342616 195.04687349548908,179.69916434540391 194.09015473939883,176.84679665738156 193.12837488415914,173.99442896935932 192.1616075816358,171.14206128133708 191.18992686562686,168.28969359331472 190.2134071461934,165.43732590529248 189.232123203961,162.58495821727024 188.24615018439343,159.7325905292479 187.25556359203793,156.88022284122565 186.2604392847432,154.0278551532033 185.26085346785035,151.17548746518105 184.25688268835717,148.3231197771588 183.24860382905615,145.47075208913645 182.23609410264723,142.6183844011142 181.21943104582448,139.76601671309197 180.19869251333876,136.91364902506962 179.17395667203567,134.06128133704738 178.1453019948695,131.20891364902502 177.11280725489405,128.35654596100278 176.07655151923015,125.50417827298054 175.0366141430108,122.65181058495818 173.99307476330438,119.79944289693594 172.94601329301605,116.9470752089137 171.8955099147681,114.09470752089135 170.84164507475978,111.2423398328691 169.78449947660664,108.38997214484675 168.7241540751607,105.53760445682451 167.66069007031058,102.68523676880227 166.5941889007636,99.83286908077991 165.5247322378094,96.98050139275767 164.4524019790652,94.12813370473532 163.37728024220488,91.27576601671308 162.29944935866982,88.42339832869084 161.21899186736448,85.57103064066848 160.1359905083356,82.71866295264624 159.05052821643602,79.866295264624 157.9626881149736,77.01392757660165 156.87255350934592,74.1615598885794 155.7802078806606,71.30919220055705 154.68573487934276,68.45682451253481 153.58921831872877,65.60445682451257 152.49074216864818,62.75208913649021 151.3903905489936,59.89972144846797 150.28824772327846,57.04735376044573 149.18439809218444,54.194986072423376 148.0789261870984,51.342618384401135 146.97191666363864,48.49025069637878 145.86345429517243,45.63788300835654 144.75362396632397,42.7855153203343 143.64251066647412,39.93314763231194 142.5301994832521,37.0807799442897 141.41677559601936,34.22841225626746 140.30232426934688,31.376044568245106 139.18693084648564,28.523676880222865 138.07068074283103,25.67130919220051 136.95365943938216,22.81894150417827 135.83595247619542,19.96657381615603 134.71764544583422,17.114206128133674 133.5988239868144,14.261838440111433 132.47957377704597,11.409470752089078 131.35998052727228,8.557103064066837 130.2401299745061,5.704735376044596 129.12010787546413,2.852367688022241 128.0,0.0" fill="none" stroke="black" />
</g>
</defs>
<use href="#strip" x="0.0" y="0" />
<!--
<use href="#strip" x="256.0" y="0" />
<use href="#strip" x="512.0" y="0" />
<use href="#strip" x="768.0" y="0" />
<use href="#strip" x="1024.0" y="0" />
<use href="#strip" x="1280.0" y="0" />
<use href="#strip" x="1536.0" y="0" />
<use href="#strip" x="1792.0" y="0" />
-->
</svg>
